<svg width="546" height="224" viewBox="0 0 546 224" fill="none" xmlns="http://www.w3.org/2000/svg">
<g clip-path="url(#clip0_323_7128)">
<path d="M77.1296 97.5683L111.357 126.288L97.3747 142.952C89.4439 152.403 75.3526 153.636 65.901 145.705V145.705C56.4494 137.775 55.2165 123.683 63.1474 114.232L77.1296 97.5683Z" fill="#86EFAC" fill-opacity="0.4"/>
<path d="M70.0557 121.639C67.8487 125.031 65.2594 133.117 72.5584 138.32" stroke="#86EFAC" stroke-width="1.76371" stroke-linecap="round" stroke-dasharray="3.53 7.05 11.76 7.05"/>
<g filter="url(#filter0_d_323_7128)">
<path d="M122.585 78.1526C132.036 86.0833 133.269 100.175 125.339 109.626L97.3748 142.953L96.9985 143.391C89.0047 152.442 75.2042 153.514 65.9003 145.707L65.4639 145.33C56.4131 137.336 55.3405 123.537 63.1474 114.233L91.1118 80.9062C99.0426 71.4553 113.133 70.2223 122.585 78.1526ZM78.2919 100.852L65.4455 116.161C58.5798 124.343 59.6466 136.543 67.8287 143.409C76.0111 150.274 88.2108 149.207 95.0766 141.025L107.923 125.715L78.2919 100.852ZM120.657 80.4508C112.474 73.5854 100.276 74.6529 93.4099 82.8345L80.2202 98.5534L109.851 123.417L123.041 107.698C129.906 99.5156 128.839 87.3164 120.657 80.4508Z" fill="#86EFAC"/>
</g>
<path d="M122.546 78.1273C131.904 86.076 132.764 100.503 124.445 110.417L97.9926 141.942C89.6443 151.891 75.2147 153.527 65.7631 145.597C61.8062 142.276 59.3502 137.806 58.4431 133C59.6458 135.243 61.2896 137.287 63.3652 138.996C72.1474 146.23 85.321 144.752 92.7893 135.695L117.222 106.065C124.69 97.0081 123.625 83.8024 114.843 76.5688C112.897 74.966 110.735 73.7907 108.468 73.031C113.418 73.0386 118.351 74.6696 122.418 78.0191C122.461 78.0546 122.503 78.0915 122.546 78.1273Z" fill="#86EFAC" fill-opacity="0.25"/>
</g>
<path d="M166.598 95.7158V87H207.662L202.098 95.7158H192.355V137H181.905V95.7158H166.598Z" fill="#86EFAC"/>
<path d="M210.44 137V87H244.131V95.7158H221.011V107.63H242.398V116.346H221.011V128.284H244.229V137H210.44Z" fill="#86EFAC"/>
<path d="M249.785 137V87H269.511C273.287 87 276.51 87.6755 279.179 89.0264C281.865 90.361 283.907 92.2572 285.307 94.7148C286.723 97.1562 287.431 100.029 287.431 103.333C287.431 106.653 286.715 109.51 285.283 111.902C283.85 114.279 281.775 116.102 279.057 117.371C276.355 118.641 273.084 119.275 269.243 119.275H256.035V110.779H267.534C269.552 110.779 271.228 110.503 272.563 109.949C273.898 109.396 274.89 108.566 275.541 107.459C276.209 106.352 276.542 104.977 276.542 103.333C276.542 101.673 276.209 100.273 275.541 99.1338C274.89 97.9945 273.889 97.1318 272.539 96.5459C271.204 95.9437 269.519 95.6426 267.485 95.6426H260.356V137H249.785ZM276.787 114.246L289.213 137H277.543L265.385 114.246H276.787Z" fill="#86EFAC"/>
<path d="M294.769 87H307.806L321.575 120.594H322.161L335.931 87H348.968V137H338.714V104.456H338.299L325.36 136.756H318.377L305.438 104.334H305.023V137H294.769V87Z" fill="#86EFAC"/>
<path d="M365.095 87V137H354.524V87H365.095Z" fill="#86EFAC"/>
<path d="M412.472 87V137H403.341L381.588 105.53H381.222V137H370.651V87H379.928L401.51 118.445H401.949V87H412.472Z" fill="#86EFAC"/>
<path d="M426.578 137H415.25L432.51 87H446.134L463.37 137H452.042L439.517 98.4258H439.127L426.578 137Z" fill="#86EFAC"/>
<path d="M466.148 137V87H476.719V128.284H498.154V137H466.148Z" fill="#86EFAC"/>
<defs>
<filter id="filter0_d_323_7128" x="47.3097" y="62.3154" width="93.8664" height="99.2291" filterUnits="userSpaceOnUse" color-interpolation-filters="sRGB">
<feFlood flood-opacity="0" result="BackgroundImageFix"/>
<feColorMatrix in="SourceAlpha" type="matrix" values="0 0 0 0 0 0 0 0 0 0 0 0 0 0 0 0 0 0 127 0" result="hardAlpha"/>
<feOffset/>
<feGaussianBlur stdDeviation="5.30524"/>
<feComposite in2="hardAlpha" operator="out"/>
<feColorMatrix type="matrix" values="0 0 0 0 0.52549 0 0 0 0 0.937255 0 0 0 0 0.67451 0 0 0 1 0"/>
<feBlend mode="normal" in2="BackgroundImageFix" result="effect1_dropShadow_323_7128"/>
<feBlend mode="normal" in="SourceGraphic" in2="effect1_dropShadow_323_7128" result="shape"/>
</filter>
<clipPath id="clip0_323_7128">
<rect width="94.7089" height="100" fill="white" transform="translate(46.8889 62)"/>
</clipPath>
</defs>
</svg>
